#!OML:ASF H:\BabyWalks\Project 1\Capture day 1\Session 1\baby.ASF
:FULLY-SPECIFIED
:DEGREES
497
root -31.0007 17.6997 -3.87325 -16.7322 55.9952 -17.4954
lowerback 15.2329 -0.977044 -1.70319
upperback 4.28809 -1.64333 -5.90637
thorax -4.11279 -0.719183 -4.99372
lowerneck 9.28732 8.8906 16.5843
upperneck -1.48665 13.5086 -5.24773
head -0.467265 6.82254 -4.37835
rclavicle 2.70347e-014 2.54444e-014
rhumerus -95.805 -27.8199 37.005
rradius 36.2937
rwrist -21.4536
rhand -14.1185 -35.1712
rfingers 7.12502
rthumb 12.0149 -64.8064
lclavicle 2.70347e-014 2.54444e-014
lhumerus -54.3143 -4.71461 67.05
lradius 40.0072
lwrist -0.79457
lhand 2.93633 10.3642
lfingers 7.12502
lthumb 28.3997 38.2296
rfemur -4.61507 12.2227 26.0605
rtibia 10.5115
rfoot -1.32529 5.75981
rtoes 35.3366
lfemur 3.85333 -17.1008 -11.7863
ltibia 25.1188
lfoot -27.7767 40.4885
ltoes 1.57346
498
root -31.0006 17.7035 -3.86958 -16.9435 56.4857 -17.6791
lowerback 15.2152 -0.993276 -1.64584
upperback 4.3043 -1.64694 -5.70042
thorax -4.08209 -0.722119 -4.80355
lowerneck 9.19866 8.82607 16.3874
upperneck -1.82585 13.3839 -5.3139
head -0.577105 6.74669 -4.38102
rclavicle 8.74653e-014 4.77083e-014
rhumerus -97.6415 -28.1107 38.8233
rradius 35.5762
rwrist -18.9948
rhand -13.519 -34.5112
rfingers 7.12502
rthumb 12.5929 -64.1116
lclavicle 8.74653e-014 4.77083e-014
lhumerus -54.2026 -3.95987 66.3805
lradius 39.5453
lwrist -1.62347
lhand 3.57524 9.87165
lfingers 7.12502
lthumb 29.0101 37.6337
rfemur -4.46476 12.0484 26.0162
rtibia 10.4061
rfoot -1.52541 5.5941
rtoes 34.8149
lfemur 3.73953 -17.1498 -11.705
ltibia 25.0854
lfoot -27.5925 40.1187
ltoes 1.48568
499
root -31.0002 17.7075 -3.8664 -17.1853 56.9953 -17.8901
lowerback 15.196 -1.01616 -1.56617
upperback 4.33307 -1.65466 -5.48629
thorax -4.03797 -0.726987 -4.61703
lowerneck 9.06129 8.76175 16.1912
upperneck -2.165 13.2509 -5.38932
head -0.679218 6.66708 -4.38365
rclavicle 4.77083e-015 -3.18055e-015
rhumerus -99.0952 -28.2825 40.2142
rradius 34.8807
rwrist -16.8321
rhand -13.0408 -33.8174
rfingers 7.12502
rthumb 13.0539 -63.3889
lclavicle 4.77083e-015 -3.18055e-015
lhumerus -54.0167 -3.08453 65.5247
lradius 39.0571
lwrist -2.43182
lhand 4.30855 9.52302
lfingers 7.12502
lthumb 29.7102 37.1624
rfemur -4.30192 11.871 25.9762
rtibia 10.2925
rfoot -1.72605 5.42006
rtoes 34.2803
lfemur 3.6194 -17.1764 -11.6086
ltibia 25.0538
lfoot -27.3797 39.7147
ltoes 1.37818
500
root -30.9989 17.7116 -3.86387 -17.415 57.5207 -18.083
lowerback 15.1618 -1.03677 -1.47477
upperback 4.37094 -1.6564 -5.27539
thorax -3.97613 -0.728709 -4.44231
lowerneck 8.89364 8.69127 16.0037
upperneck -2.51095 13.1054 -5.47856
head -0.778163 6.58155 -4.39011
rclavicle -1.19271e-014 3.18055e-015
rhumerus -100.214 -28.4033 41.2756
rradius 34.2583
rwrist -15.0321
rhand -12.7705 -33.242
rfingers 7.12502
rthumb 13.3144 -62.7966
lclavicle -1.19271e-014 3.18055e-015
lhumerus -53.7548 -2.11471 64.4904
lradius 38.5544
lwrist -3.17477
lhand 5.07656 9.38532
lfingers 7.12502
lthumb 30.443 36.8915
rfemur -4.12394 11.6925 25.9118
rtibia 10.1566
rfoot -1.91986 5.24467
rtoes 33.7451
lfemur 3.49678 -17.2129 -11.5391
ltibia 25.0272
lfoot -27.1926 39.3131
ltoes 1.28893
501
root -30.9969 17.716 -3.86208 -17.6548 58.0609 -18.2852
lowerback 15.1181 -1.05628 -1.3556
upperback 4.41712 -1.65179 -5.06529
thorax -3.90084 -0.727201 -4.28599
lowerneck 8.6925 8.61515 15.8264
upperneck -2.8588 12.9477 -5.58195
head -0.871795 6.49049 -4.40036
rclavicle 3.49861e-014 0
rhumerus -101.063 -28.5462 42.1057
rradius 33.8148
rwrist -13.7172
rhand -12.851 -32.9319
rfingers 7.12502
rthumb 13.2368 -62.4916
lclavicle 3.49861e-014 0
lhumerus -53.4112 -1.09969 63.3079
lradius 38.0263
lwrist -3.79432
lhand 5.73906 9.3838
lfingers 7.12502
lthumb 31.0746 36.771
rfemur -3.93748 11.5147 25.8389
rtibia 10.0076
rfoot -2.11407 5.06593
rtoes 33.1759
lfemur 3.37016 -17.2526 -11.4759
ltibia 25.0009
lfoot -27.0243 38.9059
ltoes 1.21329
502
root -30.9949 17.7203 -3.86117 -17.8802 58.6336 -18.4785
lowerback 15.065 -1.07678 -1.22377
upperback 4.46448 -1.64656 -4.85898
thorax -3.81973 -0.725308 -4.14156
lowerneck 8.47817 8.52926 15.6586
upperneck -3.21447 12.7756 -5.70062
head -0.965302 6.39281 -4.41605
rclavicle -2.14687e-014 1.90833e-014
rhumerus -101.627 -28.7156 42.6596
rradius 33.5536
rwrist -12.9074
rhand -13.1832 -32.9259
rfingers 7.12502
rthumb 12.9166 -62.5062
lclavicle -2.14687e-014 1.90833e-014
lhumerus -52.9905 -0.0689594 62.0016
lradius 37.4758
lwrist -4.30884
lhand 6.18011 9.48677
lfingers 7.12502
lthumb 31.4949 36.7927
rfemur -3.76118 11.4308 25.7338
rtibia 9.86557
rfoot -2.37281 4.79222
rtoes 32.6053
lfemur 3.22134 -17.279 -11.4225
ltibia 24.967
lfoot -26.8604 38.4696
ltoes 1.18674
503
root -30.9922 17.7246 -3.86103 -18.0789 59.2207 -18.6466
lowerback 14.9968 -1.09316 -1.08171
upperback 4.51362 -1.63433 -4.65955
thorax -3.72866 -0.719811 -4.0121
lowerneck 8.24394 8.43864 15.4937
upperneck -3.56662 12.5944 -5.82461
head -1.05474 6.29135 -4.43248
rclavicle -7.15625e-015 -6.36111e-014
rhumerus -101.92 -28.9151 42.9635
rradius 33.4541
rwrist -12.4731
rhand -13.5594 -33.0681
rfingers 7.12502
rthumb 12.5539 -62.6709
lclavicle -7.15625e-015 -6.36111e-014
lhumerus -52.4888 0.945341 60.603
lradius 36.9013
lwrist -4.7496
lhand 6.36282 9.65763
lfingers 7.12502
lthumb 31.669 36.9294
rfemur -3.59553 11.3383 25.6016
rtibia 9.73746
rfoot -2.64147 4.52912
rtoes 32.0093
lfemur 3.06866 -17.3234 -11.4003
ltibia 24.9212
lfoot -26.7215 38.0518
ltoes 1.23171
504
root -30.9895 17.7295 -3.86163 -18.2366 59.8308 -18.7742
lowerback 14.9144 -1.10844 -0.943693
upperback 4.565 -1.62133 -4.46942
thorax -3.62782 -0.71366 -3.89086
lowerneck 7.9955 8.3448 15.3291
upperneck -3.91598 12.407 -5.95362
head -1.14111 6.18753 -4.44949
rclavicle 5.80451e-014 1.27222e-014
rhumerus -101.963 -29.148 43.0532
rradius 33.4804
rwrist -12.3024
rhand -13.8862 -33.2217
rfingers 7.12502
rthumb 12.2388 -62.8436
lclavicle 5.80451e-014 1.27222e-014
lhumerus -51.9016 1.91868 59.1379
lradius 36.2866
lwrist -5.216
lhand 6.22385 9.7556
lfingers 7.12502
lthumb 31.5366 37.0534
rfemur -3.44711 11.2315 25.4327
rtibia 9.63254
rfoot -2.92178 4.27542
rtoes 31.3848
lfemur 2.90609 -17.3606 -11.409
ltibia 24.8587
lfoot -26.5728 37.6275
ltoes 1.30498
505
root -30.9876 17.735 -3.86293 -18.3473 60.4754 -18.8621
lowerback 14.8213 -1.12801 -0.818656
upperback 4.61588 -1.6163 -4.28888
thorax -3.52216 -0.711234 -3.77143
lowerneck 7.73794 8.24947 15.1601
upperneck -4.26285 12.2162 -6.08178
head -1.22566 6.0828 -4.46498
rclavicle -2.38542e-015 -9.54166e-015
rhumerus -101.769 -29.4223 42.9376
rradius 33.6176
rwrist -12.3408
rhand -14.1609 -33.3388
rfingers 7.12502
rthumb 11.9739 -62.9763
lclavicle -2.38542e-015 -9.54166e-015
lhumerus -51.2272 2.8187 57.6383
lradius 35.6398
lwrist -5.79849
lhand 5.77097 9.73154
lfingers 7.12502
lthumb 31.1051 37.1129
rfemur -3.33025 11.0998 25.2257
rtibia 9.56589
rfoot -3.22051 4.02946
rtoes 30.72
lfemur 2.71863 -17.3689 -11.437
ltibia 24.7748
lfoot -26.4171 37.1601
ltoes 1.38833
506
root -30.9868 17.7414 -3.86469 -18.4015 61.1507 -18.9038
lowerback 14.7134 -1.15201 -0.716763
upperback 4.66851 -1.62064 -4.11803
thorax -3.407 -0.71318 -3.64794
lowerneck 7.46058 8.15443 14.9879
upperneck -4.60197 12.023 -6.21052
head -1.30484 5.97771 -4.47875
rclavicle 1.59028e-015 6.67916e-014
rhumerus -101.342 -29.7477 42.6135
rradius 33.8426
rwrist -12.535
rhand -14.4024 -33.3876
rfingers 7.12502
rthumb 11.7411 -63.0385
lclavicle 1.59028e-015 6.67916e-014
lhumerus -50.4431 3.63739 56.1232
lradius 34.9409
lwrist -6.61563
lhand 5.06076 9.55213
lfingers 7.12502
lthumb 30.4279 37.0611
rfemur -3.24385 10.9479 24.9812
rtibia 9.52807
rfoot -3.53482 3.78378
rtoes 30.0326
lfemur 2.50304 -17.3389 -11.4817
ltibia 24.6727
lfoot -26.2422 36.6429
ltoes 1.51392
507
root -30.9865 17.7482 -3.86672 -18.4077 61.8336 -18.8987
lowerback 14.5931 -1.17202 -0.632936
upperback 4.72524 -1.62242 -3.95653
thorax -3.28048 -0.713594 -3.52505
lowerneck 7.1646 8.05606 14.8162
upperneck -4.92906 11.8232 -6.34029
head -1.37775 5.8703 -4.49146
rclavicle 1.35174e-014 -3.18055e-015
rhumerus -100.701 -30.1164 42.1023
rradius 34.1289
rwrist -12.8116
rhand -14.3394 -32.122
rfingers 7.12502
rthumb 11.8018 -61.7695
lclavicle 1.35174e-014 -3.18055e-015
lhumerus -49.547 4.35971 54.6119
lradius 34.2068
lwrist -7.76768
lhand 4.17102 9.231
lfingers 7.12502
lthumb 29.579 36.8937
rfemur -3.16818 10.7964 24.71
rtibia 9.50146
rfoot -3.85212 3.53021
rtoes 29.3373
lfemur 2.28165 -17.2873 -11.55
ltibia 24.5591
lfoot -26.0821 36.0988
ltoes 1.67738
